<svg xmlns="http://www.w3.org/2000/svg" width="22.606" height="23.097" viewBox="0 0 22.606 23.097">
  <g id="Group_1077" data-name="Group 1077" transform="translate(-382.907 -4892.272)">
    <g id="Group_207" data-name="Group 207" transform="translate(387.148 4904.109)">
      <path id="Path_123" data-name="Path 123" d="M392.963,4915.362v.645h-2.45v-.645Z" transform="translate(-390.513 -4915.362)"/>
      <path id="Path_124" data-name="Path 124" d="M399.17,4915.362v.645h-2.451v-.645Z" transform="translate(-393.674 -4915.362)"/>
      <path id="Path_125" data-name="Path 125" d="M405.376,4915.362v.645h-2.451v-.645Z" transform="translate(-396.836 -4915.362)"/>
      <path id="Path_126" data-name="Path 126" d="M411.582,4915.362v.645h-2.451v-.645Z" transform="translate(-399.997 -4915.362)"/>
      <path id="Path_127" data-name="Path 127" d="M392.963,4923.362v.644h-2.45v-.644Z" transform="translate(-390.513 -4919.437)"/>
      <path id="Path_128" data-name="Path 128" d="M399.17,4923.362v.644h-2.451v-.644Z" transform="translate(-393.674 -4919.437)"/>
      <path id="Path_129" data-name="Path 129" d="M405.376,4923.362v.644h-2.451v-.644Z" transform="translate(-396.836 -4919.437)"/>
      <path id="Path_130" data-name="Path 130" d="M411.582,4923.362v.644h-2.451v-.644Z" transform="translate(-399.997 -4919.437)"/>
      <path id="Path_131" data-name="Path 131" d="M417.788,4923.362v.644h-2.45v-.644Z" transform="translate(-403.159 -4919.437)"/>
    </g>
    <path id="Path_132" data-name="Path 132" d="M388.813,4897.273h-3.925a.981.981,0,0,0-.981.981v17.171a.981.981,0,0,0,.981.981h18.643a.982.982,0,0,0,.981-.981v-17.171a.981.981,0,0,0-.981-.981h-3.925" transform="translate(0 -2.038)" fill="none" stroke="#000" stroke-linecap="round" stroke-linejoin="round" stroke-width="2"/>
    <line id="Line_179" data-name="Line 179" x1="6.676" transform="translate(390.583 4895.294)" fill="none" stroke="#000" stroke-linecap="round" stroke-linejoin="round" stroke-width="2"/>
    <rect id="Rectangle_313" data-name="Rectangle 313" width="1.962" height="4.364" rx="0.981" transform="translate(388.813 4893.272)" fill="none" stroke="#000" stroke-linecap="round" stroke-linejoin="round" stroke-width="2"/>
    <rect id="Rectangle_314" data-name="Rectangle 314" width="1.962" height="4.364" rx="0.981" transform="translate(397.644 4893.272)" fill="none" stroke="#000" stroke-linecap="round" stroke-linejoin="round" stroke-width="2"/>
  </g>
</svg>
