<svg xmlns="http://www.w3.org/2000/svg" width="39.219" height="39.219" viewBox="0 0 39.219 39.219"><g transform="translate(-1612.391 -1472.39)"><g transform="translate(-101.328 -952.666)"><path d="M1733.329,2426.056a18.61,18.61,0,1,0,18.61,18.61A18.631,18.631,0,0,0,1733.329,2426.056Z" fill="none" stroke="#ff1d83" stroke-miterlimit="10" stroke-width="2"/><g transform="translate(1725.915 2437.252)"><path d="M1745.805,2456.833l-2.471,2.471a.465.465,0,0,1-.328.136.46.46,0,0,1-.328-.136l-2.471-2.471" transform="translate(-1735.592 -2448.938)" fill="none" stroke="#ff1d83" stroke-miterlimit="10" stroke-width="2"/><path d="M1747.594,2460.787v2.78a1.7,1.7,0,0,1-1.7,1.7h-11.429a1.7,1.7,0,0,1-1.7-1.7v-2.78" transform="translate(-1732.768 -2450.439)" fill="none" stroke="#ff1d83" stroke-miterlimit="10" stroke-width="2"/><line y1="10.502" transform="translate(7.413 0)" fill="none" stroke="#ff1d83" stroke-miterlimit="10" stroke-width="2"/></g></g></g></svg>